<svg width="21" height="21" viewBox="0 0 21 21" fill="none" xmlns="http://www.w3.org/2000/svg">
  <path d="M10.556 2.3C13.222 2.3 13.542 2.3 14.596 2.353C15.569 2.393 16.102 2.567 16.449 2.7C16.916 2.887 17.249 3.1 17.596 3.447C17.942 3.793 18.169 4.127 18.342 4.593C18.476 4.94 18.649 5.473 18.689 6.447C18.742 7.5 18.742 7.82 18.742 10.487C18.742 13.153 18.742 13.473 18.689 14.527C18.649 15.5 18.476 16.033 18.342 16.38C18.156 16.847 17.942 17.18 17.596 17.527C17.249 17.873 16.916 18.1 16.449 18.273C16.102 18.407 15.569 18.567 14.596 18.62C13.542 18.673 13.222 18.673 10.556 18.673C7.889 18.673 7.569 18.673 6.516 18.62C5.542 18.58 5.009 18.407 4.662 18.273C4.196 18.087 3.862 17.873 3.516 17.527C3.169 17.18 2.942 16.847 2.769 16.38C2.636 16.033 2.476 15.5 2.422 14.527C2.369 13.473 2.369 13.153 2.369 10.487C2.369 7.82 2.369 7.5 2.422 6.447C2.462 5.473 2.636 4.94 2.769 4.593C2.956 4.127 3.169 3.793 3.516 3.447C3.862 3.1 4.196 2.887 4.662 2.7C5.009 2.567 5.542 2.407 6.516 2.353C7.569 2.3 7.889 2.3 10.556 2.3ZM10.556 0.5C7.836 0.5 7.502 0.5 6.436 0.567C5.369 0.62 4.649 0.78 4.009 1.033C3.356 1.287 2.796 1.633 2.236 2.193C1.676 2.753 1.342 3.313 1.076 3.967C0.822 4.607 0.662 5.327 0.609 6.393C0.556 7.46 0.542 7.807 0.542 10.513C0.542 13.22 0.542 13.567 0.609 14.633C0.662 15.7 0.822 16.42 1.076 17.06C1.329 17.713 1.676 18.273 2.236 18.833C2.796 19.393 3.356 19.727 4.009 19.993C4.649 20.247 5.369 20.407 6.436 20.46C7.502 20.513 7.849 20.527 10.556 20.527C13.262 20.527 13.609 20.527 14.676 20.46C15.742 20.407 16.462 20.247 17.102 19.993C17.756 19.74 18.316 19.393 18.876 18.833C19.436 18.273 19.769 17.713 20.022 17.06C20.276 16.42 20.436 15.7 20.489 14.633C20.542 13.567 20.556 13.22 20.556 10.513C20.556 7.807 20.556 7.46 20.489 6.393C20.436 5.327 20.276 4.607 20.022 3.967C19.769 3.313 19.422 2.753 18.876 2.193C18.316 1.633 17.756 1.3 17.102 1.033C16.462 0.78 15.742 0.62 14.676 0.567C13.609 0.513 13.262 0.5 10.556 0.5Z" fill="white"/>
  <path d="M10.556 5.367C7.716 5.367 5.422 7.66 5.422 10.5C5.422 13.34 7.716 15.633 10.556 15.633C13.396 15.633 15.689 13.34 15.689 10.5C15.689 7.66 13.396 5.367 10.556 5.367ZM10.556 13.833C8.716 13.833 7.222 12.34 7.222 10.5C7.222 8.66 8.716 7.167 10.556 7.167C12.396 7.167 13.889 8.66 13.889 10.5C13.889 12.34 12.396 13.833 10.556 13.833Z" fill="white"/>
  <path d="M17.089 5.167C17.089 5.833 16.556 6.367 15.889 6.367C15.222 6.367 14.689 5.833 14.689 5.167C14.689 4.5 15.222 3.967 15.889 3.967C16.556 3.967 17.089 4.5 17.089 5.167Z" fill="white"/>
</svg>
