<svg width="18" height="19" viewBox="0 0 18 19" fill="none" xmlns="http://www.w3.org/2000/svg">
  <path d="M4.378 6.606H0.805V18.166H4.378V6.606Z" fill="white"/>
  <path fill-rule="evenodd" clip-rule="evenodd" d="M2.591 5.087C3.751 5.087 4.698 4.14 4.698 2.953C4.698 1.767 3.751 0.847 2.591 0.847C1.431 0.847 0.458 1.807 0.458 2.953C0.458 4.1 1.405 5.087 2.591 5.087Z" fill="white"/>
  <path fill-rule="evenodd" clip-rule="evenodd" d="M10.098 12.087C10.098 10.46 10.845 9.513 12.285 9.513C13.591 9.513 14.218 10.447 14.218 12.087V18.167H17.765V10.847C17.765 7.727 16.018 6.233 13.565 6.233C11.111 6.233 10.085 8.14 10.085 8.14V6.593H6.658V18.153H10.085V12.073L10.098 12.087Z" fill="white"/>
</svg>
