<svg width="21" height="21" viewBox="0 0 21 21" fill="none" xmlns="http://www.w3.org/2000/svg">
  <path d="M20.469 14.763C20.341 14.435 20.083 14.15 19.753 14.007C19.695 13.979 19.638 13.95 19.595 13.922C19.51 13.879 19.409 13.836 19.309 13.779C18.42 13.337 17.661 12.682 17.073 11.884C16.93 11.67 16.801 11.442 16.686 11.214C16.643 11.128 16.643 11.028 16.672 10.943C16.7 10.886 16.744 10.843 16.801 10.815C16.958 10.701 17.13 10.601 17.245 10.515C17.446 10.387 17.618 10.273 17.718 10.202C18.062 9.974 18.348 9.674 18.563 9.318C18.807 8.862 18.836 8.32 18.65 7.836C18.378 7.152 17.704 6.696 16.958 6.724C16.801 6.724 16.629 6.738 16.472 6.781L16.342 6.81C16.356 6.325 16.342 5.841 16.299 5.37C16.242 4.144 15.755 2.961 14.924 2.064C14.522 1.622 14.049 1.237 13.519 0.938C11.527 -0.146 9.105 -0.146 7.113 0.938C6.582 1.237 6.109 1.607 5.708 2.064C4.906 2.976 4.418 4.144 4.361 5.37C4.318 5.855 4.303 6.339 4.318 6.81L4.189 6.781C4.031 6.738 3.86 6.724 3.702 6.724C2.956 6.696 2.283 7.138 2.011 7.836C1.824 8.32 1.853 8.862 2.096 9.318C2.297 9.674 2.584 9.988 2.942 10.202C3.043 10.273 3.214 10.373 3.415 10.515C3.529 10.587 3.687 10.686 3.845 10.8C3.902 10.843 3.945 10.886 3.988 10.943C4.031 11.028 4.017 11.128 3.974 11.214C3.874 11.442 3.745 11.67 3.602 11.869C3.014 12.668 2.269 13.295 1.409 13.737C0.922 14.007 0.406 14.164 0.19 14.748C0.033 15.233 0.162 15.775 0.548 16.117C0.706 16.274 0.879 16.402 1.064 16.516C1.466 16.73 1.896 16.901 2.34 17.029C2.426 17.057 2.527 17.086 2.598 17.143C2.742 17.271 2.727 17.471 2.928 17.756C3.028 17.898 3.157 18.041 3.301 18.141C3.73 18.383 4.218 18.497 4.705 18.468C5.235 18.468 5.751 18.54 6.253 18.696C6.525 18.811 6.798 18.939 7.041 19.11C9.019 20.464 11.627 20.464 13.605 19.11C13.849 18.953 14.107 18.811 14.379 18.696C14.881 18.54 15.411 18.468 15.926 18.468C16.414 18.497 16.901 18.383 17.331 18.141C17.503 18.012 17.661 17.856 17.761 17.67C17.904 17.428 17.904 17.257 18.033 17.143C18.105 17.1 18.191 17.057 18.277 17.029C18.736 16.915 19.166 16.744 19.567 16.516C19.768 16.402 19.953 16.259 20.111 16.102C20.513 15.746 20.627 15.233 20.469 14.763Z" fill="white"/>
</svg>
